<?xml version="1.0" ?><!DOCTYPE svg  PUBLIC '-//W3C//DTD SVG 1.1//EN'  'http://www.w3.org/Graphics/SVG/1.1/DTD/svg11.dtd'><svg enable-background="new 0 0 96 96" height="96px" id="Layer_1" version="1.1" viewBox="0 0 96 96" width="96px" xml:space="preserve" xmlns="http://www.w3.org/2000/svg" xmlns:xlink="http://www.w3.org/1999/xlink"><g><path clip-rule="evenodd" d="M48,94.871C22.113,94.871,1.129,73.887,1.129,48   C1.129,22.114,22.113,1.128,48,1.128c25.886,0,46.871,20.985,46.871,46.871C94.871,73.887,73.886,94.871,48,94.871" fill="#4FA7A0" fill-rule="evenodd"/><line fill="none" stroke="#FFFFFF" stroke-linecap="round" stroke-linejoin="round" stroke-miterlimit="2.6131" stroke-width="1.9998" x1="64.872" x2="58.754" y1="24.97" y2="50.422"/><path d="   M58.754,50.422c-0.928,2.951-2.283,4.199-5.066,4.199c-10.5,0-11.518,0-22.018,0c-2.295,0-4.395-1.646-5.426-4.199" fill="none" stroke="#FFFFFF" stroke-linecap="round" stroke-linejoin="round" stroke-miterlimit="2.6131" stroke-width="1.9998"/><line fill="none" stroke="#FFFFFF" stroke-linecap="round" stroke-linejoin="round" stroke-miterlimit="2.6131" stroke-width="1.9998" x1="26.244" x2="22.234" y1="50.422" y2="38.498"/><path d="   M22.234,38.498c-0.133-1.189,0.486-2.045,1.701-2.045" fill="none" stroke="#FFFFFF" stroke-linecap="round" stroke-linejoin="round" stroke-miterlimit="2.6131" stroke-width="1.9998"/><line fill="none" stroke="#FFFFFF" stroke-linecap="round" stroke-linejoin="round" stroke-miterlimit="2.6131" stroke-width="1.9998" x1="23.936" x2="62.16" y1="36.453" y2="36.396"/><line fill="none" stroke="#FFFFFF" stroke-linecap="round" stroke-linejoin="round" stroke-miterlimit="2.6131" stroke-width="1.9998" x1="64.871" x2="71.441" y1="24.97" y2="22.324"/><path d="   M70.968,22.595c0.74-0.602,1.827-0.488,2.429,0.252c0.602,0.738,0.489,1.826-0.25,2.43c-0.74,0.599-1.828,0.488-2.429-0.252   C70.116,24.285,70.229,23.197,70.968,22.595" fill="none" stroke="#FFFFFF" stroke-linecap="round" stroke-linejoin="round" stroke-miterlimit="2.6131" stroke-width="1.9998"/><polyline fill="none" points="   57.488,65.316 28.483,65.318 30.786,58.824  " stroke="#FFFFFF" stroke-linecap="round" stroke-linejoin="round" stroke-miterlimit="2.6131" stroke-width="1.9998"/><path d="   M30.786,58.824c0.87-2.348,3.043-4.201,5.338-4.201" fill="none" stroke="#FFFFFF" stroke-linecap="round" stroke-linejoin="round" stroke-miterlimit="2.6131" stroke-width="1.9998"/><line fill="none" stroke="#FFFFFF" stroke-linecap="round" stroke-linejoin="round" stroke-miterlimit="2.6131" stroke-width="1.9998" x1="36.124" x2="52.183" y1="54.623" y2="54.623"/><path d="   M33.772,67.158c1.831,0,3.317,1.486,3.317,3.318s-1.486,3.316-3.317,3.316s-3.316-1.484-3.316-3.316S31.941,67.158,33.772,67.158" fill="none" stroke="#FFFFFF" stroke-linecap="round" stroke-linejoin="round" stroke-miterlimit="2.6131" stroke-width="1.9998"/><path d="   M51.381,67.158c1.832,0,3.316,1.486,3.316,3.318s-1.484,3.316-3.316,3.316c-1.831,0-3.316-1.484-3.316-3.316   S49.55,67.158,51.381,67.158" fill="none" stroke="#FFFFFF" stroke-linecap="round" stroke-linejoin="round" stroke-miterlimit="2.6131" stroke-width="1.9998"/><line fill="none" stroke="#FFFFFF" stroke-linecap="round" stroke-linejoin="round" stroke-miterlimit="2.6131" stroke-width="1.9998" x1="53.911" x2="51.96" y1="39.464" y2="51.557"/><line fill="none" stroke="#FFFFFF" stroke-linecap="round" stroke-linejoin="round" stroke-miterlimit="2.6131" stroke-width="1.9998" x1="46.229" x2="45.625" y1="39.464" y2="51.557"/><line fill="none" stroke="#FFFFFF" stroke-linecap="round" stroke-linejoin="round" stroke-miterlimit="2.6131" stroke-width="1.9998" x1="38.109" x2="39.54" y1="39.464" y2="51.557"/><line fill="none" stroke="#FFFFFF" stroke-linecap="round" stroke-linejoin="round" stroke-miterlimit="2.6131" stroke-width="1.9998" x1="30.024" x2="33.111" y1="39.36" y2="51.557"/><path clip-rule="evenodd" d="M30.562,57.033c-0.054-0.055-0.106-0.109-0.158-0.164   c-0.115-0.109-0.228-0.221-0.337-0.338c-0.116-0.107-0.229-0.221-0.338-0.338c-0.116-0.109-0.229-0.223-0.341-0.34   c-0.115-0.109-0.229-0.221-0.338-0.338c-0.115-0.109-0.229-0.223-0.339-0.338c-0.115-0.109-0.229-0.223-0.338-0.34   c-0.115-0.107-0.229-0.221-0.339-0.338c-0.115-0.109-0.229-0.221-0.338-0.338c-0.116-0.109-0.229-0.223-0.339-0.34   c0.17,0.16,0.346,0.311,0.526,0.449c1.113,0.861,2.419,1.348,3.787,1.348h0.01C31.26,56.041,30.883,56.518,30.562,57.033    M30.056,68.281c-0.02-0.027-0.038-0.055-0.055-0.082c-0.138-0.084-0.255-0.199-0.338-0.338c-0.139-0.084-0.255-0.201-0.339-0.338   c-0.139-0.084-0.255-0.201-0.338-0.34c-0.139-0.082-0.255-0.199-0.339-0.338c-0.139-0.084-0.255-0.199-0.339-0.338   c-0.138-0.084-0.255-0.201-0.338-0.338c0.15,0.09,0.326,0.143,0.515,0.143h4.145c-0.702,0.193-1.333,0.561-1.845,1.051   c-0.021,0.02-0.043,0.039-0.063,0.059C30.466,67.678,30.241,67.967,30.056,68.281z M51.909,94.707l-0.045-0.049   c-0.053-0.047-0.104-0.096-0.154-0.146c-0.001-0.002-0.001-0.002-0.002-0.002s-0.001,0-0.002,0.002   c-0.062-0.063-0.122-0.127-0.181-0.191c-0.053-0.049-0.104-0.098-0.153-0.146c-0.001-0.002-0.002-0.002-0.002-0.002   c-0.001,0-0.002,0-0.002,0.002c-0.063-0.063-0.123-0.127-0.181-0.193c-0.053-0.047-0.104-0.096-0.154-0.146   c-0.001,0-0.001,0-0.002-0.002c-0.001,0.002-0.001,0.002-0.002,0.002c-0.063-0.061-0.122-0.125-0.181-0.191   c-0.053-0.047-0.104-0.096-0.154-0.146c0,0-0.001-0.002-0.002-0.002c0,0-0.001,0.002-0.002,0.002   c-0.062-0.063-0.122-0.127-0.181-0.191c-0.052-0.049-0.104-0.098-0.153-0.146c-0.001-0.002-0.002-0.002-0.002-0.002   c-0.001,0-0.002,0-0.002,0.002c-0.063-0.063-0.123-0.127-0.181-0.193c-0.053-0.047-0.104-0.096-0.154-0.146   c-0.001,0-0.001,0-0.002-0.002c-0.001,0.002-0.001,0.002-0.002,0.002c-0.062-0.061-0.122-0.125-0.181-0.191   c-0.052-0.047-0.104-0.096-0.153-0.146c-0.001,0-0.002-0.002-0.002-0.002c-0.001,0-0.002,0.002-0.002,0.002   c-0.063-0.063-0.123-0.125-0.181-0.191c-0.053-0.049-0.104-0.096-0.154-0.146c-0.001-0.002-0.001-0.002-0.002-0.002   s-0.001,0-0.002,0.002c-0.062-0.063-0.122-0.127-0.181-0.191c-0.053-0.049-0.104-0.098-0.153-0.146   c-0.001-0.002-0.002-0.002-0.002-0.002c-0.001,0-0.002,0-0.003,0.002c-0.062-0.063-0.122-0.127-0.18-0.193   c-0.053-0.047-0.104-0.096-0.154-0.146c-0.001,0-0.001,0-0.002-0.002c-0.001,0.002-0.002,0.002-0.002,0.002   c-0.063-0.063-0.122-0.125-0.181-0.191c-0.053-0.047-0.104-0.096-0.154-0.146c0,0-0.001-0.002-0.002-0.002   s-0.001,0.002-0.002,0.002c-0.062-0.063-0.122-0.127-0.181-0.191c-0.052-0.049-0.104-0.098-0.153-0.146   c-0.001-0.002-0.002-0.002-0.002-0.002c-0.001,0-0.002,0-0.002,0.002c-0.063-0.063-0.123-0.127-0.181-0.193   c-0.053-0.047-0.104-0.096-0.154-0.146c-0.001,0-0.001,0-0.002-0.002c-0.001,0.002-0.001,0.002-0.002,0.002   c-0.062-0.061-0.122-0.125-0.181-0.191c-0.052-0.047-0.104-0.096-0.153-0.146c-0.001,0-0.002-0.002-0.002-0.002   c-0.001,0-0.002,0.002-0.002,0.002c-0.063-0.063-0.123-0.125-0.181-0.191c-0.053-0.049-0.104-0.096-0.154-0.146   c-0.001-0.002-0.001-0.002-0.002-0.002s-0.001,0-0.002,0.002c-0.062-0.063-0.122-0.127-0.181-0.191   c-0.053-0.049-0.104-0.098-0.153-0.146c-0.001-0.002-0.002-0.002-0.003-0.004c0,0.002-0.001,0.002-0.002,0.004   c-0.062-0.063-0.122-0.127-0.18-0.193c-0.053-0.047-0.104-0.096-0.154-0.146c-0.001,0-0.002,0-0.002-0.002   c-0.001,0.002-0.002,0.002-0.002,0.002c-0.063-0.063-0.123-0.127-0.182-0.193c-0.053-0.047-0.104-0.096-0.153-0.145   c-0.001-0.002-0.001-0.002-0.002-0.002s-0.001,0-0.002,0.002c-0.062-0.063-0.122-0.127-0.181-0.191   c-0.052-0.049-0.104-0.098-0.153-0.146c-0.001-0.002-0.002-0.002-0.002-0.002c-0.001,0-0.002,0-0.002,0.002   c-0.063-0.063-0.123-0.127-0.181-0.193c-0.053-0.047-0.104-0.096-0.154-0.146c-0.001,0-0.001-0.002-0.002-0.002   s-0.001,0.002-0.002,0.002c-0.062-0.063-0.122-0.125-0.181-0.191c-0.052-0.047-0.104-0.096-0.153-0.146   c-0.001-0.002-0.002-0.002-0.002-0.002c-0.001,0-0.002,0-0.002,0.002c-0.063-0.063-0.123-0.127-0.181-0.191   c-0.053-0.049-0.104-0.098-0.154-0.146c-0.001-0.002-0.001-0.002-0.002-0.002s-0.001,0-0.002,0.002   c-0.063-0.063-0.122-0.127-0.181-0.193c-0.053-0.047-0.104-0.096-0.154-0.146c0,0-0.001,0-0.002-0.002   c0,0.002-0.001,0.002-0.002,0.002c-0.062-0.061-0.122-0.125-0.181-0.191c-0.052-0.047-0.104-0.096-0.153-0.146   c-0.001,0-0.002-0.002-0.002-0.002c-0.001,0-0.002,0.002-0.002,0.002c-0.063-0.063-0.123-0.127-0.181-0.191   c-0.053-0.049-0.104-0.098-0.154-0.146c-0.001-0.002-0.001-0.002-0.002-0.002s-0.001,0-0.002,0.002   c-0.062-0.063-0.122-0.127-0.181-0.191c-0.052-0.049-0.104-0.098-0.153-0.148c-0.001,0-0.002,0-0.002-0.002   c-0.001,0.002-0.002,0.002-0.002,0.002c-0.063-0.061-0.123-0.125-0.181-0.191c-0.053-0.047-0.104-0.096-0.154-0.146   c-0.001,0-0.001-0.002-0.002-0.002s-0.001,0.002-0.002,0.002c-0.063-0.063-0.122-0.125-0.181-0.191   c-0.052-0.047-0.104-0.096-0.153-0.146c-0.001-0.002-0.002-0.002-0.002-0.002c-0.001,0-0.002,0-0.003,0.002   c-0.062-0.063-0.122-0.127-0.18-0.191c-0.053-0.049-0.104-0.098-0.154-0.146c-0.001-0.002-0.001-0.002-0.002-0.002   s-0.002,0-0.002,0.002c-0.063-0.063-0.122-0.127-0.181-0.193c-0.053-0.047-0.104-0.096-0.154-0.146c0,0-0.001,0-0.002-0.002   c-0.001,0.002-0.001,0.002-0.002,0.002c-0.062-0.061-0.122-0.125-0.181-0.191c-0.052-0.047-0.104-0.096-0.153-0.146   c-0.001,0-0.002-0.002-0.002-0.002c-0.001,0-0.002,0.002-0.002,0.002c-0.063-0.063-0.123-0.127-0.181-0.191   c-0.053-0.049-0.104-0.098-0.154-0.146c-0.001-0.002-0.001-0.002-0.002-0.002s-0.001,0-0.002,0.002   c-0.062-0.063-0.122-0.127-0.181-0.193c-0.052-0.047-0.104-0.096-0.153-0.146c-0.001,0-0.002,0-0.002-0.002   c-0.001,0.002-0.002,0.002-0.002,0.002c-0.063-0.061-0.123-0.125-0.181-0.191c-0.053-0.047-0.104-0.096-0.154-0.146   c-0.001,0-0.001-0.002-0.002-0.002s-0.001,0.002-0.002,0.002c-0.063-0.063-0.122-0.125-0.181-0.191   c-0.053-0.047-0.104-0.096-0.153-0.146c-0.001-0.002-0.002-0.002-0.003-0.002c0,0-0.001,0-0.002,0.002   c-0.063-0.063-0.123-0.127-0.182-0.193c-0.052-0.047-0.103-0.096-0.152-0.146c-0.001,0-0.002,0-0.002-0.002   c-0.001,0.002-0.002,0.002-0.002,0.002c-0.063-0.061-0.123-0.125-0.181-0.191c-0.053-0.047-0.104-0.096-0.154-0.146   c-0.001,0-0.001-0.002-0.002-0.002s-0.001,0.002-0.002,0.002c-0.062-0.063-0.122-0.125-0.181-0.191   c-0.052-0.049-0.104-0.096-0.153-0.146c-0.001-0.002-0.002-0.002-0.002-0.002c-0.001,0-0.002,0-0.002,0.002   c-0.063-0.063-0.123-0.127-0.181-0.191c-0.053-0.049-0.104-0.098-0.154-0.146c-0.001-0.002-0.001-0.002-0.002-0.002   s-0.001,0-0.002,0.002c-0.062-0.063-0.122-0.127-0.181-0.193c-0.052-0.047-0.104-0.096-0.153-0.146c-0.001,0-0.002,0-0.002-0.002   c-0.001,0.002-0.002,0.002-0.003,0.002c-0.062-0.063-0.122-0.125-0.18-0.191c-0.053-0.047-0.104-0.096-0.154-0.146   c-0.001,0-0.001-0.002-0.002-0.002s-0.002,0.002-0.002,0.002c-0.063-0.063-0.122-0.127-0.181-0.191   c-0.053-0.049-0.104-0.098-0.154-0.146c0-0.002-0.001-0.002-0.002-0.002s-0.001,0-0.002,0.002   c-0.062-0.063-0.122-0.127-0.181-0.193c-0.052-0.047-0.104-0.096-0.153-0.146c-0.001,0-0.002,0-0.002-0.002   c-0.001,0.002-0.002,0.002-0.002,0.002c-0.063-0.061-0.123-0.125-0.181-0.191c-0.053-0.047-0.104-0.096-0.154-0.146   c-0.001,0-0.001-0.002-0.002-0.002s-0.001,0.002-0.002,0.002c-0.062-0.063-0.122-0.125-0.181-0.191   c-0.052-0.049-0.104-0.096-0.153-0.146c-0.001-0.002-0.002-0.002-0.002-0.002c-0.001,0-0.002,0-0.002,0.002   c-0.063-0.063-0.123-0.127-0.181-0.191c-0.053-0.049-0.104-0.098-0.154-0.146c-0.001-0.002-0.001-0.002-0.002-0.002   s-0.001,0-0.002,0.002c-0.063-0.063-0.122-0.127-0.181-0.193c-0.053-0.047-0.104-0.096-0.153-0.146c-0.001,0-0.002,0-0.003-0.002   c0,0.002-0.001,0.002-0.002,0.002c-0.062-0.063-0.122-0.125-0.18-0.191c-0.053-0.047-0.104-0.096-0.154-0.146   c-0.001,0-0.002-0.002-0.002-0.002c-0.001,0-0.002,0.002-0.002,0.002c-0.063-0.063-0.123-0.127-0.181-0.191   c-0.053-0.049-0.104-0.098-0.154-0.146c-0.001-0.002-0.001-0.002-0.002-0.002s-0.001,0-0.002,0.002   c-0.062-0.063-0.122-0.127-0.181-0.193c-0.052-0.047-0.104-0.096-0.153-0.146c-0.001,0-0.002,0-0.002-0.002   c-0.001,0.002-0.002,0.002-0.002,0.002c-0.063-0.061-0.123-0.125-0.181-0.191c-0.053-0.047-0.104-0.096-0.154-0.146   c-0.001,0-0.001-0.002-0.002-0.002s-0.001,0.002-0.002,0.002c-0.062-0.063-0.122-0.127-0.181-0.191   c-0.052-0.049-0.104-0.098-0.153-0.146c-0.001-0.002-0.002-0.002-0.002-0.002c-0.001,0-0.002,0-0.002,0.002   c-0.063-0.063-0.123-0.127-0.181-0.191c-0.053-0.049-0.104-0.098-0.154-0.146c-0.001-0.002-0.001-0.002-0.002-0.002   s-0.001,0-0.002,0.002c-0.063-0.064-0.123-0.127-0.182-0.193c-0.052-0.049-0.104-0.098-0.153-0.146c0,0-0.001-0.002-0.002-0.002   c0,0-0.001,0.002-0.002,0.002c-0.062-0.063-0.122-0.125-0.18-0.191c-0.053-0.049-0.104-0.098-0.154-0.146   c-0.001-0.002-0.002-0.002-0.002-0.002c-0.001,0-0.002,0-0.002,0.002c-0.063-0.063-0.123-0.127-0.181-0.191   c-0.053-0.049-0.104-0.098-0.154-0.148c-0.001,0-0.001,0-0.002-0.002c-0.001,0.002-0.001,0.002-0.002,0.002   c-0.062-0.061-0.122-0.125-0.181-0.191c-0.052-0.047-0.104-0.096-0.153-0.146c-0.001,0-0.002-0.002-0.002-0.002   c-0.001,0-0.002,0.002-0.002,0.002c-0.063-0.063-0.123-0.125-0.181-0.191c-0.053-0.047-0.104-0.096-0.154-0.146   c-0.001-0.002-0.001-0.002-0.002-0.002s-0.001,0-0.002,0.002c-0.063-0.063-0.122-0.127-0.181-0.191   c-0.052-0.049-0.104-0.098-0.153-0.146c-0.001-0.002-0.002-0.002-0.002-0.002c-0.001,0-0.002,0-0.003,0.002   c-0.062-0.063-0.122-0.127-0.18-0.193c-0.053-0.047-0.104-0.096-0.154-0.146c-0.001,0-0.001,0-0.002-0.002   c-0.001,0.002-0.001,0.002-0.002,0.002c-0.063-0.061-0.122-0.125-0.181-0.191c-0.053-0.047-0.104-0.096-0.154-0.146   c0,0-0.001-0.002-0.002-0.002c0,0-0.001,0.002-0.002,0.002c-0.062-0.063-0.122-0.127-0.18-0.191   c-0.053-0.049-0.104-0.098-0.154-0.146c-0.001-0.002-0.002-0.002-0.002-0.002c-0.001,0-0.002,0-0.002,0.002   c-0.063-0.063-0.123-0.127-0.181-0.191c0.766,0.693,1.782,1.117,2.895,1.117c1.158,0,2.212-0.459,2.988-1.207   c0.021-0.018,0.043-0.037,0.063-0.059c0.781-0.779,1.265-1.859,1.265-3.051s-0.483-2.271-1.265-3.053l-0.002,0.002l-0.002-0.002   c-0.521-0.521-1.174-0.91-1.904-1.109l15.322-0.002c-0.732,0.201-1.388,0.59-1.91,1.111c-0.781,0.781-1.265,1.861-1.265,3.053   s0.483,2.271,1.265,3.051c0.781,0.783,1.861,1.266,3.053,1.266c1.157,0,2.211-0.459,2.988-1.205   c0.021-0.02,0.043-0.039,0.063-0.061c0.781-0.779,1.265-1.859,1.265-3.051s-0.483-2.271-1.265-3.053l-0.002,0.002   c-0.523-0.523-1.179-0.912-1.911-1.113h4.968c0.55,0,0.996-0.447,0.996-0.996c0-0.551-0.446-0.996-0.996-0.996L29.897,64.32   l1.823-5.143l0.004-0.012c0.379-1.023,1.049-1.938,1.873-2.586c0.756-0.594,1.638-0.957,2.528-0.957h16.058   c0.029,0,0.058-0.002,0.087-0.004h1.418c1.638,0,2.879-0.387,3.874-1.232c0.959-0.813,1.625-2.014,2.146-3.67   c0.014-0.045,0.024-0.09,0.032-0.133l3.295-13.711c0.078-0.142,0.123-0.305,0.123-0.479l-0.001-0.028l2.563-10.663l3.631-1.463   c0.057,0.501,0.253,0.992,0.594,1.412c0.475,0.584,1.141,0.92,1.834,0.991c0.662,0.069,1.353-0.105,1.924-0.537   c0.026-0.018,0.053-0.037,0.078-0.058c0.58-0.475,0.915-1.142,0.986-1.836c0.068-0.661-0.104-1.348-0.533-1.916   c-0.023-0.035-0.049-0.069-0.077-0.102c0.102,0.086,0.198,0.181,0.288,0.284c0.018,0.018,0.035,0.035,0.051,0.055   c0.102,0.086,0.197,0.181,0.288,0.283c0.018,0.018,0.034,0.036,0.05,0.055c0.102,0.086,0.198,0.181,0.288,0.284   c0.018,0.018,0.035,0.036,0.051,0.055c0.102,0.086,0.198,0.181,0.288,0.283c0.018,0.019,0.034,0.036,0.051,0.055   c0.101,0.087,0.197,0.182,0.287,0.284c0.018,0.018,0.035,0.036,0.051,0.055c0.102,0.086,0.198,0.181,0.288,0.284   c0.018,0.018,0.034,0.035,0.051,0.055c0.102,0.086,0.197,0.181,0.288,0.283c0.018,0.018,0.034,0.036,0.05,0.055   c0.102,0.086,0.198,0.181,0.288,0.284c0.018,0.018,0.035,0.036,0.051,0.055c0.102,0.086,0.197,0.181,0.288,0.283l0.051,0.056   c0.102,0.086,0.197,0.181,0.287,0.283c0.018,0.018,0.035,0.036,0.051,0.055c0.102,0.086,0.198,0.181,0.288,0.284   c0.018,0.018,0.034,0.035,0.051,0.055c0.102,0.086,0.197,0.181,0.287,0.283c0.018,0.019,0.035,0.036,0.051,0.055   c0.102,0.087,0.198,0.181,0.288,0.284c0.018,0.018,0.034,0.036,0.051,0.055c0.102,0.086,0.197,0.181,0.288,0.283   c0.018,0.019,0.034,0.036,0.05,0.055c0.102,0.087,0.198,0.182,0.288,0.284c0.018,0.018,0.035,0.036,0.051,0.055   c0.102,0.086,0.198,0.181,0.288,0.284c0.018,0.018,0.034,0.035,0.05,0.055c0.102,0.086,0.198,0.181,0.288,0.283   c0.018,0.018,0.035,0.036,0.051,0.055c0.102,0.086,0.198,0.181,0.288,0.284c0.018,0.018,0.034,0.036,0.051,0.055   c0.102,0.086,0.197,0.181,0.288,0.283c0.018,0.019,0.034,0.036,0.05,0.055c0.102,0.087,0.198,0.182,0.288,0.284   c0.018,0.018,0.034,0.036,0.051,0.055c0.102,0.086,0.197,0.181,0.288,0.283c0.018,0.019,0.034,0.036,0.05,0.055   c0.102,0.087,0.198,0.182,0.288,0.284c0.018,0.018,0.035,0.036,0.051,0.055c0.102,0.086,0.198,0.181,0.288,0.284   c0.018,0.018,0.034,0.035,0.051,0.055c0.101,0.086,0.197,0.181,0.287,0.283c0.019,0.018,0.035,0.036,0.051,0.055   c0.102,0.086,0.198,0.181,0.288,0.284c0.018,0.018,0.034,0.036,0.051,0.055c0.102,0.086,0.197,0.181,0.288,0.283   c0.018,0.019,0.034,0.036,0.05,0.055c0.102,0.087,0.198,0.182,0.288,0.284l0.052,0.056c0.101,0.086,0.197,0.181,0.287,0.283   c0.018,0.018,0.034,0.036,0.05,0.055c0.102,0.086,0.198,0.181,0.288,0.283c0.018,0.019,0.035,0.036,0.051,0.055   c0.102,0.087,0.198,0.182,0.288,0.284c0.018,0.018,0.034,0.036,0.051,0.055c0.102,0.086,0.197,0.181,0.288,0.284   c0.018,0.018,0.034,0.035,0.05,0.055c0.102,0.086,0.198,0.181,0.288,0.283c0.018,0.018,0.034,0.036,0.051,0.055   c0.102,0.086,0.197,0.181,0.288,0.284c0.018,0.018,0.034,0.036,0.05,0.055c0.102,0.086,0.198,0.181,0.288,0.283   c0.018,0.019,0.035,0.036,0.051,0.055c0.102,0.087,0.198,0.182,0.288,0.284c0.018,0.018,0.034,0.036,0.051,0.055   c0.101,0.086,0.197,0.181,0.287,0.283c0.018,0.019,0.035,0.036,0.051,0.056c0.102,0.086,0.198,0.181,0.288,0.283   c0.018,0.018,0.034,0.036,0.051,0.055c0.102,0.086,0.197,0.181,0.288,0.284c0.018,0.018,0.034,0.036,0.05,0.055   c0.102,0.086,0.198,0.181,0.288,0.283c0.018,0.019,0.035,0.036,0.051,0.055c0.102,0.086,0.197,0.181,0.288,0.284   c0.018,0.018,0.034,0.036,0.05,0.055c0.102,0.086,0.198,0.181,0.288,0.283c0.018,0.019,0.035,0.036,0.051,0.055   c0.102,0.087,0.198,0.182,0.288,0.284c0.018,0.018,0.034,0.036,0.051,0.055c0.101,0.086,0.197,0.181,0.287,0.283   c0.018,0.019,0.035,0.036,0.051,0.056c0.102,0.086,0.198,0.181,0.288,0.283c0.018,0.018,0.034,0.036,0.051,0.055   c0.102,0.086,0.197,0.181,0.288,0.284l0.051,0.056c0.102,0.086,0.197,0.18,0.287,0.283c0.018,0.018,0.035,0.035,0.051,0.055   c0.102,0.086,0.197,0.181,0.288,0.283c0.018,0.018,0.034,0.036,0.05,0.055c0.102,0.086,0.198,0.181,0.288,0.284   c0.018,0.018,0.035,0.036,0.051,0.055c0.102,0.086,0.198,0.181,0.288,0.283c0.018,0.019,0.034,0.036,0.051,0.055   c0.102,0.086,0.197,0.181,0.288,0.284c0.017,0.018,0.034,0.036,0.05,0.055c0.102,0.086,0.198,0.181,0.288,0.283   c0.018,0.019,0.035,0.036,0.051,0.055c0.102,0.087,0.197,0.182,0.288,0.284c0.018,0.018,0.034,0.036,0.05,0.055   c0.102,0.086,0.198,0.181,0.288,0.284c0.018,0.018,0.035,0.035,0.051,0.055c0.102,0.086,0.197,0.181,0.288,0.283   c0.018,0.018,0.034,0.036,0.05,0.055c0.102,0.086,0.198,0.181,0.288,0.284c0.018,0.018,0.035,0.036,0.051,0.055   c0.102,0.086,0.198,0.181,0.288,0.283c0.018,0.019,0.034,0.036,0.051,0.055c0.102,0.087,0.197,0.181,0.288,0.284   c0.018,0.018,0.034,0.036,0.05,0.055c0.102,0.086,0.198,0.181,0.288,0.283c0.018,0.019,0.035,0.036,0.051,0.056   c0.102,0.086,0.197,0.181,0.288,0.283c0.018,0.018,0.034,0.036,0.05,0.055c0.102,0.086,0.198,0.181,0.288,0.284   c0.018,0.018,0.035,0.036,0.051,0.055c0.031,0.026,0.063,0.055,0.094,0.083c0.204,1.776,0.313,3.582,0.313,5.413   C94.871,72.57,75.966,92.721,51.909,94.707z" fill="#38817B" fill-rule="evenodd"/></g></svg>