<?xml version="1.0" ?><!DOCTYPE svg  PUBLIC '-//W3C//DTD SVG 1.1//EN'  'http://www.w3.org/Graphics/SVG/1.1/DTD/svg11.dtd'><svg enable-background="new 0 0 128 128" id="Layer_1" version="1.1" viewBox="0 0 128 128" xml:space="preserve" xmlns="http://www.w3.org/2000/svg" xmlns:xlink="http://www.w3.org/1999/xlink"><g><g><g><path d="M64,111.927c-1.469,0-2.851-0.572-3.889-1.611L17.685,67.889c-1.039-1.038-1.611-2.42-1.611-3.889     s0.572-2.851,1.611-3.889l42.427-42.427c1.038-1.039,2.42-1.611,3.889-1.611s2.851,0.572,3.889,1.611l42.427,42.427     c1.039,1.038,1.611,2.42,1.611,3.889s-0.572,2.851-1.611,3.889l-42.427,42.427C66.851,111.354,65.469,111.927,64,111.927z      M64,17.073c-1.202,0-2.332,0.468-3.182,1.318L18.392,60.818c-0.851,0.85-1.318,1.979-1.318,3.182s0.468,2.332,1.318,3.182     l42.427,42.427c0.85,0.851,1.979,1.318,3.182,1.318s2.332-0.468,3.182-1.318l42.427-42.427c0.851-0.85,1.318-1.979,1.318-3.182     s-0.468-2.332-1.318-3.182L67.182,18.392C66.332,17.541,65.202,17.073,64,17.073z"/></g></g><g><g><path d="M64,108.927c-0.668,0-1.296-0.261-1.768-0.732L19.806,65.768c-0.473-0.473-0.732-1.1-0.732-1.768     s0.261-1.296,0.732-1.768l42.427-42.427c0.945-0.945,2.592-0.943,3.535,0l42.427,42.427c0.473,0.473,0.732,1.1,0.732,1.768     s-0.261,1.296-0.732,1.768l-42.427,42.427C65.295,108.667,64.668,108.927,64,108.927z M64,20.073c-0.4,0-0.777,0.156-1.061,0.439     L20.513,62.94c-0.283,0.283-0.439,0.659-0.439,1.06s0.156,0.777,0.439,1.061l42.428,42.427c0.566,0.566,1.554,0.566,2.12,0     l42.427-42.428c0.283-0.283,0.439-0.659,0.439-1.06s-0.156-0.777-0.439-1.061L65.06,20.513C64.776,20.229,64.4,20.073,64,20.073z     "/></g></g><g><g><g><path d="M45.039,48.873v5.589c0,2.115,0.938,3.012,2.199,3.012c1.4,0,2.297-0.924,2.297-3.012v-5.589h1.233v5.505      c0,2.9-1.527,4.091-3.572,4.091c-1.933,0-3.39-1.106-3.39-4.034v-5.562H45.039z"/></g></g><g><g><path d="M52.528,58.314v-9.441h1.331l3.025,4.777c0.7,1.106,1.247,2.101,1.695,3.067l0.027-0.015      c-0.111-1.26-0.14-2.409-0.14-3.88v-3.95h1.148v9.441h-1.232l-2.998-4.791c-0.658-1.05-1.288-2.129-1.765-3.151l-0.042,0.014      c0.07,1.191,0.098,2.325,0.098,3.895v4.034H52.528z"/></g></g><g><g><path d="M61.39,48.999c0.742-0.111,1.625-0.195,2.592-0.195c1.751,0,2.997,0.406,3.824,1.176c0.84,0.771,1.33,1.863,1.33,3.391      c0,1.54-0.476,2.801-1.358,3.67c-0.883,0.882-2.34,1.358-4.175,1.358c-0.868,0-1.597-0.042-2.213-0.112V48.999z M62.608,57.348      c0.309,0.057,0.757,0.07,1.232,0.07c2.605,0,4.021-1.457,4.021-4.006c0.014-2.228-1.247-3.643-3.824-3.643      c-0.63,0-1.106,0.057-1.429,0.126V57.348z"/></g></g><g><g><path d="M75.253,53.888h-3.67v3.404h4.09v1.022h-5.309v-9.441h5.099v1.022h-3.88v2.984h3.67V53.888z"/></g></g><g><g><path d="M76.901,48.999c0.616-0.126,1.499-0.195,2.34-0.195c1.302,0,2.143,0.237,2.731,0.771      c0.476,0.42,0.742,1.064,0.742,1.793c0,1.246-0.784,2.072-1.779,2.409v0.042c0.729,0.252,1.163,0.924,1.387,1.904      c0.309,1.317,0.532,2.228,0.729,2.592H81.79c-0.154-0.267-0.364-1.078-0.63-2.255c-0.28-1.303-0.785-1.793-1.892-1.835H78.12      v4.09h-1.219V48.999z M78.12,53.3h1.247c1.303,0,2.129-0.715,2.129-1.793c0-1.219-0.883-1.751-2.171-1.765      c-0.589,0-1.009,0.056-1.205,0.111V53.3z"/></g></g><g><g><path d="M33.877,70.062c-0.322,0.168-1.037,0.392-1.947,0.392c-2.045,0-3.376-1.387-3.376-3.459      c0-2.088,1.429-3.601,3.642-3.601c0.729,0,1.373,0.183,1.709,0.351l-0.279,0.952c-0.295-0.168-0.757-0.322-1.43-0.322      c-1.555,0-2.395,1.148-2.395,2.563c0,1.569,1.008,2.535,2.353,2.535c0.701,0,1.163-0.182,1.514-0.336L33.877,70.062z"/></g></g><g><g><path d="M41.018,66.868c0,2.508-1.737,3.601-3.376,3.601c-1.835,0-3.25-1.345-3.25-3.488c0-2.27,1.485-3.6,3.362-3.6      C39.7,63.381,41.018,64.796,41.018,66.868z M35.639,66.938c0,1.485,0.854,2.605,2.059,2.605c1.177,0,2.06-1.106,2.06-2.634      c0-1.148-0.574-2.604-2.031-2.604S35.639,65.65,35.639,66.938z"/></g></g><g><g><path d="M42.217,65.37c0-0.701-0.014-1.275-0.056-1.835h1.093l0.069,1.12h0.028c0.336-0.645,1.12-1.274,2.241-1.274      c0.938,0,2.396,0.561,2.396,2.886v4.048h-1.233v-3.908c0-1.093-0.405-2.003-1.568-2.003c-0.812,0-1.442,0.574-1.653,1.261      c-0.056,0.154-0.084,0.364-0.084,0.574v4.076h-1.232V65.37z"/></g></g><g><g><path d="M49.469,69.054c0.364,0.238,1.009,0.49,1.625,0.49c0.896,0,1.316-0.448,1.316-1.009c0-0.588-0.35-0.91-1.261-1.246      c-1.219-0.435-1.793-1.106-1.793-1.919c0-1.093,0.883-1.989,2.34-1.989c0.686,0,1.288,0.196,1.667,0.42l-0.309,0.896      c-0.267-0.168-0.757-0.392-1.387-0.392c-0.729,0-1.135,0.42-1.135,0.924c0,0.561,0.406,0.812,1.289,1.148      c1.177,0.448,1.778,1.037,1.778,2.046c0,1.19-0.924,2.03-2.535,2.03c-0.742,0-1.429-0.182-1.905-0.462L49.469,69.054z"/></g></g><g><g><path d="M56.315,61.588v1.947h1.765v0.938h-1.765v3.655c0,0.841,0.237,1.317,0.924,1.317c0.322,0,0.561-0.042,0.715-0.084      l0.056,0.924c-0.238,0.099-0.616,0.168-1.093,0.168c-0.574,0-1.036-0.182-1.33-0.518c-0.351-0.364-0.477-0.967-0.477-1.766      v-3.697H54.06v-0.938h1.051V61.91L56.315,61.588z"/></g></g><g><g><path d="M59.114,65.65c0-0.799-0.014-1.485-0.056-2.115h1.078l0.042,1.33h0.057c0.308-0.91,1.05-1.484,1.877-1.484      c0.14,0,0.237,0.014,0.35,0.042v1.162c-0.126-0.027-0.252-0.042-0.42-0.042c-0.868,0-1.485,0.659-1.653,1.583      c-0.027,0.168-0.056,0.364-0.056,0.574v3.614h-1.219V65.65z"/></g></g><g><g><path d="M69.016,68.466c0,0.7,0.015,1.316,0.057,1.849h-1.093l-0.07-1.106h-0.028c-0.321,0.546-1.036,1.261-2.241,1.261      c-1.064,0-2.339-0.589-2.339-2.97v-3.964h1.232v3.754c0,1.288,0.393,2.157,1.513,2.157c0.827,0,1.401-0.574,1.625-1.121      c0.07-0.182,0.112-0.406,0.112-0.63v-4.16h1.232V68.466z"/></g></g><g><g><path d="M75.539,70.062c-0.322,0.168-1.037,0.392-1.947,0.392c-2.045,0-3.376-1.387-3.376-3.459      c0-2.088,1.429-3.601,3.642-3.601c0.729,0,1.373,0.183,1.709,0.351l-0.279,0.952c-0.295-0.168-0.757-0.322-1.43-0.322      c-1.555,0-2.395,1.148-2.395,2.563c0,1.569,1.008,2.535,2.353,2.535c0.701,0,1.163-0.182,1.514-0.336L75.539,70.062z"/></g></g><g><g><path d="M78.296,61.588v1.947h1.765v0.938h-1.765v3.655c0,0.841,0.237,1.317,0.924,1.317c0.322,0,0.561-0.042,0.715-0.084      l0.056,0.924c-0.238,0.099-0.616,0.168-1.093,0.168c-0.574,0-1.036-0.182-1.33-0.518c-0.351-0.364-0.477-0.967-0.477-1.766      v-3.697H76.04v-0.938h1.051V61.91L78.296,61.588z"/></g></g><g><g><path d="M82.467,61.63c0.014,0.42-0.294,0.756-0.784,0.756c-0.435,0-0.743-0.336-0.743-0.756c0-0.435,0.322-0.771,0.771-0.771      C82.173,60.859,82.467,61.195,82.467,61.63z M81.094,70.314v-6.779h1.232v6.779H81.094z"/></g></g><g><g><path d="M90.156,66.868c0,2.508-1.737,3.601-3.376,3.601c-1.835,0-3.25-1.345-3.25-3.488c0-2.27,1.485-3.6,3.362-3.6      C88.839,63.381,90.156,64.796,90.156,66.868z M84.777,66.938c0,1.485,0.854,2.605,2.059,2.605c1.177,0,2.06-1.106,2.06-2.634      c0-1.148-0.574-2.604-2.031-2.604S84.777,65.65,84.777,66.938z"/></g></g><g><g><path d="M91.356,65.37c0-0.701-0.014-1.275-0.056-1.835h1.093l0.069,1.12h0.028c0.336-0.645,1.12-1.274,2.241-1.274      c0.938,0,2.396,0.561,2.396,2.886v4.048h-1.233v-3.908c0-1.093-0.406-2.003-1.568-2.003c-0.812,0-1.442,0.574-1.653,1.261      c-0.056,0.154-0.084,0.364-0.084,0.574v4.076h-1.232V65.37z"/></g></g></g></g></svg>